<?xml version="1.0" encoding="UTF-8" standalone="no"?>
<svg width="71px" height="62px" viewBox="0 0 71 62" version="1.1" xmlns="http://www.w3.org/2000/svg" xmlns:xlink="http://www.w3.org/1999/xlink" xmlns:sketch="http://www.bohemiancoding.com/sketch/ns">
    <!-- Generator: Sketch 3.4.4 (17249) - http://www.bohemiancoding.com/sketch -->
    <title>Group</title>
    <desc>Created with Sketch.</desc>
    <defs></defs>
    <g id="Page-1" stroke="none" stroke-width="1" fill="none" fill-rule="evenodd" sketch:type="MSPage">
        <g id="Group" sketch:type="MSLayerGroup" transform="translate(-4.000000, -5.000000)">
            <path d="M45.7697294,66 C45.7697294,66 46.7,57.1400713 46.7,45 C46.7,41.8522 44.2825601,38.2538636 44.4751945,33.5 C44.9369502,22.1047089 47.0751944,8.25 47.0751944,8.25" id="Path-6" stroke="#366D00" stroke-width="2" stroke-linecap="round" sketch:type="MSShapeGroup"></path>
            <path d="M24.5,46 C24.5,46 28.5,41.5 32,40.5 C35.5,39.5 45,38 45,38" id="Path-7" stroke="#366D00" stroke-width="2" stroke-linecap="round" sketch:type="MSShapeGroup"></path>
            <path d="M40.3947622,45.5797254 C40.3947622,45.5797254 41.4213483,39.0827547 43.5513589,36.5478316 C46.1232546,33.4870216 52.5402312,28.1542321 52.5402312,28.1542321 M53.2190453,19.909238 C53.2190453,19.909238 53.1190453,20.109238 54.2190453,21.409238 C55.3190453,22.709238 58.7190453,22.409238 58.7190453,22.409238" id="Path-7-Copy" stroke="#366D00" stroke-width="2" stroke-linecap="round" sketch:type="MSShapeGroup" transform="translate(49.556904, 32.744482) scale(-1, 1) rotate(86.000000) translate(-49.556904, -32.744482) "></path>
            <path d="M34.7500125,35.746916 C34.7500125,35.746916 35.7765986,29.2499453 37.9066092,26.7150223 C40.4785049,23.6542123 46.8954815,18.3214227 46.8954815,18.3214227" id="Path-7-Copy-2" stroke="#366D00" stroke-width="2" stroke-linecap="round" sketch:type="MSShapeGroup" transform="translate(40.822747, 27.034169) rotate(126.000000) translate(-40.822747, -27.034169) "></path>
            <path d="M27.5460973,51.0609959 L28.3312421,53.1023724 C28.7260457,54.1288618 28.3860248,55.5610619 27.5664596,56.3061211 L27.590917,56.2838872 C27.1795644,56.657844 26.4050299,57.0377034 25.8705555,57.1306555 L22.2460967,57.7609967 C22.2460967,57.7609967 20.9460967,57.9609967 19.5460967,57.9609967 C18.1460967,57.9609967 17.0460967,56.7609967 17.0460967,56.7609967 C17.0460967,56.7609967 14.5460967,56.3609967 13.5460967,55.7609967 C12.5460967,55.1609967 11.5460967,52.9609967 11.5460967,52.9609967 C11.5460967,52.9609967 9.84609672,52.5609967 8.84609672,50.7609967 C7.84609672,48.9609967 8.74609673,46.4609967 8.74609673,46.4609967 C8.74609673,46.4609967 6.94609673,44.9609967 6.54609673,42.9609967 C6.14609672,40.9609967 7.04609673,38.9609967 7.04609673,38.9609967 C7.04609673,38.9609967 6.64609673,36.7609967 6.94609673,35.7609967 C7.24609673,34.7609967 8.74609673,34.0609967 8.74609673,34.0609967 C8.74609673,34.0609967 9.74609685,32.4609967 10.5460968,31.9609967 C11.3460968,31.4609967 13.5460968,31.1609967 13.5460968,31.1609967 C13.5460968,31.1609967 15.3460964,30.1609967 17.5460964,30.1609967 C19.7460964,30.1609967 22.0460964,32.1609966 22.3460973,32.5609967 C23.0460973,31.9609966 25.2460979,32.8609967 26.2460973,33.6609968 C27.2460967,34.4609968 28.1460967,36.1609967 28.1460967,36.1609967 C28.1460967,36.1609967 29.8460961,36.6609965 30.5460967,38.0609967 C31.2460973,39.4609969 31.0460973,40.9609969 30.8460967,41.1609967 C31.7460973,41.8609969 31.8460973,42.9609978 31.8460973,44.9609969 C31.8460973,46.9609959 30.9566437,48.1875134 30.9566437,48.1875134 C30.4537625,49.1669812 29.2275034,50.3211776 28.2160513,50.7662163 L27.5460973,51.0609959 Z" id="Path-1" stroke="#649C22" stroke-width="0.3" fill="#649C22" sketch:type="MSShapeGroup" transform="translate(19.144857, 44.060997) rotate(310.000000) translate(-19.144857, -44.060997) "></path>
            <path d="M36.1883502,32.0066245 C36.1883502,32.0066245 36.4867175,30.4066246 35.7883502,29.7066245 C35.0899829,29.0066244 32.8883502,28.5066245 31.6883502,29.5066245 C30.4883502,30.5066245 30.1883502,32.5066246 30.1883502,33.0066245 C30.1883502,33.5066244 30.277239,35.9066245 31.6883502,37.2066248 C33.0994614,38.5066252 34.38835,38.5066241 35.6883502,38.5066245 C36.9883504,38.5066248 38.6867173,37.5066242 39.1867175,37.006624 C39.6867177,36.5066239 40.18835,35.5066246 40.1883502,34.5066245 C40.1883504,33.5066244 39.6867175,33.0066245 38.9883502,32.5066245 C38.2899829,32.0066245 36.1883502,32.0066245 36.1883502,32.0066245 Z" id="Path-2" stroke="#629A1F" stroke-width="0.25" fill="#619A1F" sketch:type="MSShapeGroup" transform="translate(35.188350, 33.725000) rotate(101.000000) translate(-35.188350, -33.725000) "></path>
            <path d="M40.0407423,41.61796 C40.0407423,41.61796 40.5407421,39.11796 36.5407421,39.11796 C34.6971387,39.11796 33.1412151,40.2526868 32.7407424,41.11796 C32.3313363,42.0025347 32.2407424,42.91796 32.5407423,43.61796 C32.5407423,43.61796 31.3407423,44.11796 31.2407423,45.61796 C31.1407423,47.11796 32.2407423,47.61796 32.2407423,47.61796 C32.2407423,47.61796 32.0407424,48.81796 33.5407423,49.61796 C35.0407423,50.41796 36.0407421,49.81796 36.3407423,49.61796 C37.6407421,50.11796 39.5407421,49.61796 40.3407423,48.91796 C41.0407421,48.61796 42.3407423,48.2179601 43.0407423,46.61796 C43.7407423,45.0179599 43.0407421,43.1179599 43.0407421,43.1179599 C43.0407421,43.1179599 43.5407421,42.4179598 42.8407421,41.6179599 C42.1407421,40.81796 40.0407423,41.61796 40.0407423,41.61796 Z" id="Path-3" stroke="#6FAE25" stroke-width="0.25" fill="#6FAE25" sketch:type="MSShapeGroup" transform="translate(37.293084, 44.570113) rotate(-24.000000) translate(-37.293084, -44.570113) "></path>
            <path d="M51.4563424,16.2831066 C51.4563424,16.2831066 48.9591881,15.2831066 47.4563424,17.7831066 C45.9534967,20.2831066 50.5563424,26.0831066 52.5563424,27.9831066 C54.5563424,29.8831066 58.753497,32.9831066 63.7563424,33.0831066 C68.7591878,33.1831066 68.2563424,31.5831066 68.2563424,31.5831066 C68.2563424,31.5831066 70.2534961,30.7831067 71.2534961,29.7831067 C72.2534961,28.7831067 72.8563422,28.2831067 72.8563418,27.2831067 C74.1056805,26.7312922 74.2563423,25.4831066 74.2563424,23.7831066 C74.2563425,22.0831066 73.2563424,20.2831066 73.2563424,20.2831066 C73.2563424,20.2831066 73.3563423,19.3831066 73.0563424,18.3831066 C72.7563425,17.3831066 71.7563424,16.7831066 71.7563424,16.7831066 C71.7563424,16.7831066 71.6563424,15.7831066 70.9563424,14.7831066 C70.2563425,13.7831066 68.7563424,13.2831066 68.7563424,13.2831066 C68.7563424,13.2831066 68.6563424,11.6831066 67.7563424,10.7831066 C66.8563425,9.88310657 65.2563424,9.78310658 65.2563424,9.78310658 C65.2563424,9.78310658 64.7563423,9.08310659 63.3563424,8.68310658 C61.9563425,8.28310658 60.2563424,8.78310658 60.2563424,8.78310658 C60.2563424,8.78310658 56.6506508,8.08310657 53.7534965,10.7831066 C50.8563423,13.4831066 51.4563424,16.2831066 51.4563424,16.2831066 Z" id="Path-4" stroke="#649C22" stroke-width="0.25" fill="#649C22" sketch:type="MSShapeGroup" transform="translate(60.708204, 20.807805) rotate(292.000000) translate(-60.708204, -20.807805) "></path>
            <path d="M32.8497676,5.01461252 C30.8497676,5.0143019 30.3062359,5.27328628 30.3062359,5.27328628 C29.777993,5.40656708 29.0477139,5.83824141 28.6656174,6.24763053 L25.8339177,9.2815945 C25.456072,9.68642917 25.2676173,10.456549 25.4053584,10.9730781 L25.5497676,11.5146125 C25.5497676,11.5146125 24.5497676,12.2353178 24.5497676,13.224965 C24.5497676,14.6146122 25.1497676,16.5146124 26.1497676,17.5146125 C27.1497676,18.5146126 28.6497674,20.2146128 30.3497676,20.2146125 C32.0497678,20.2146122 34.3497676,19.6146125 34.3497676,19.6146125 L35.1173443,20.3310174 C35.5218505,20.7085566 36.2841426,21.0927377 36.828083,21.1866845 C36.828083,21.1866845 38.5497676,21.5146137 39.3497676,21.5146129 C40.1497676,21.514612 41.9497676,20.8146124 42.6497676,20.0146125 C43.3497676,19.2146126 43.3115504,18.9488411 43.3115504,18.9488411 C43.4983426,18.4328809 43.4808705,17.6080084 43.2629234,17.083321 L41.3366117,12.4459039 C41.1229636,11.9315658 40.7243637,11.1212825 40.4485922,10.6578139 C40.4485922,10.6578139 39.7116203,9.28235547 38.4891088,7.83989937 C37.5381592,6.71786247 36.9718459,6.21555786 36.9718459,6.21555786 C36.5730531,5.82843643 35.8258326,5.38850881 35.2856593,5.26180027 C35.2856593,5.26180027 34.8497676,5.01492314 32.8497676,5.01461252 Z" id="Path-5" stroke="#649C22" stroke-width="0.25" fill="#649C22" sketch:type="MSShapeGroup" transform="translate(33.994897, 13.264613) rotate(-40.000000) translate(-33.994897, -13.264613) "></path>
        </g>
    </g>
</svg>